<svg id="Layer_1" data-name="Layer 1" xmlns="http://www.w3.org/2000/svg" viewBox="0 0 185 125.03"><defs><style>.cls-1{fill:#f5f6fa;fill-rule:evenodd;}.cls-2{fill:#2fcac8;}.cls-3{fill:#1881f6;}</style></defs><path class="cls-1" d="M144.34,29A40.39,40.39,0,0,0,135.09,30,50.24,50.24,0,0,0,118.25,9.29a49.71,49.71,0,0,0-61.43,2.8A50.65,50.65,0,0,0,40.65,38.6,35.6,35.6,0,0,0,36,38.31,36.36,36.36,0,0,0,36,111l31.42,0h83.3v-.48A41,41,0,0,0,144.34,29Z"/><path class="cls-2" d="M130.34,59.12a33,33,0,0,0-33.66,0L113.51,76Z"/><path class="cls-3" d="M138.13,65.12l-9.68,9.68a21.15,21.15,0,1,1-29.79.09l-9.77-9.77c-14.21,14.22-14.16,35.1,0,49.27s35,14.21,49.24,0S152.29,79.28,138.13,65.12Z"/></svg>